HIERARCHY
ROOT hip
{
  OFFSET 0 0 0
  CHANNELS 6 Xposition Yposition Zposition Zrotation Yrotation Xrotation
  JOINT abdomen
  {
    OFFSET 0 20.6881 -0.73152
    CHANNELS 3 Zrotation Xrotation Yrotation
    JOINT chest
    {
      OFFSET 0 11.7043 -0.48768
      CHANNELS 3 Zrotation Xrotation Yrotation
      JOINT neck
      {
        OFFSET 0 22.1894 -2.19456
        CHANNELS 3 Zrotation Xrotation Yrotation
        JOINT head
        {
          OFFSET -0.24384 7.07133 1.2192
          CHANNELS 3 Zrotation Xrotation Yrotation
          JOINT leftEye
          {
            OFFSET 4.14528 8.04674 8.04672
            CHANNELS 3 Zrotation Xrotation Yrotation
            End Site
            {
              OFFSET 1 0 0
            }
          }
          JOINT rightEye
          {
            OFFSET -3.6576 8.04674 8.04672
            CHANNELS 3 Zrotation Xrotation Yrotation
            End Site
            {
              OFFSET 1 0 0
            }
          }
        }
      }
      JOINT rCollar
      {
        OFFSET -2.68224 19.2634 -4.8768
        CHANNELS 3 Zrotation Xrotation Yrotation
        JOINT rShldr
        {
          OFFSET -8.77824 -1.95073 1.46304
          CHANNELS 3 Zrotation Xrotation Yrotation
          JOINT rForeArm
          {
            OFFSET -28.1742 -1.7115 0.48768
            CHANNELS 3 Zrotation Xrotation Yrotation
            JOINT rHand
            {
              OFFSET -22.5879 0.773209 7.07136
              CHANNELS 3 Zrotation Xrotation Yrotation
              JOINT rThumb1
              {
                OFFSET -1.2192 -0.487915 3.41376
                CHANNELS 3 Zrotation Xrotation Yrotation
                JOINT rThumb2
                {
                  OFFSET -3.37035 -0.52449 3.41376
                  CHANNELS 3 Zrotation Xrotation Yrotation
                  End Site
                  {
                    OFFSET -1.78271 -1.18214 1.43049
                  }
                }
              }
              JOINT rIndex1
              {
                OFFSET -7.75947 0.938293 5.60832
                CHANNELS 3 Zrotation Xrotation Yrotation
                JOINT rIndex2
                {
                  OFFSET -2.54057 -0.884171 1.56538
                  CHANNELS 3 Zrotation Xrotation Yrotation
                  End Site
                  {
                    OFFSET -1.62519 -0.234802 1.16502
                  }
                }
              }
              JOINT rMid1
              {
                OFFSET -8.24714 1.18213 3.41376
                CHANNELS 3 Zrotation Xrotation Yrotation
                JOINT rMid2
                {
                  OFFSET -3.10165 -0.590103 1.0647
                  CHANNELS 3 Zrotation Xrotation Yrotation
                  End Site
                  {
                    OFFSET -2.48547 -0.328903 0.83742
                  }
                }
              }
              JOINT rRing1
              {
                OFFSET -8.82822 0.546677 1.51678
                CHANNELS 3 Zrotation Xrotation Yrotation
                JOINT rRing2
                {
                  OFFSET -2.60934 -0.819778 -0.0198488
                  CHANNELS 3 Zrotation Xrotation Yrotation
                  End Site
                  {
                    OFFSET -2.33842 -0.294052 0.168128
                  }
                }
              }
              JOINT rPinky1
              {
                OFFSET -8.27202 -0.0477905 -0.4584
                CHANNELS 3 Zrotation Xrotation Yrotation
                JOINT rPinky2
                {
                  OFFSET -1.82734 -0.647385 -0.700984
                  CHANNELS 3 Zrotation Xrotation Yrotation
                  End Site
                  {
                    OFFSET -1.69225 -0.51767 -0.607171
                  }
                }
              }
            }
          }
        }
      }
      JOINT lCollar
      {
        OFFSET 2.68224 19.2634 -4.8768
        CHANNELS 3 Zrotation Xrotation Yrotation
        JOINT lShldr
        {
          OFFSET 8.77824 -1.95073 1.46304
          CHANNELS 3 Zrotation Xrotation Yrotation
          JOINT lForeArm
          {
            OFFSET 28.1742 -1.7115 0.48768
            CHANNELS 3 Zrotation Xrotation Yrotation
            JOINT lHand
            {
              OFFSET 22.5879 0.773209 7.07136
              CHANNELS 3 Zrotation Xrotation Yrotation
              JOINT lThumb1
              {
                OFFSET 1.2192 -0.487915 3.41376
                CHANNELS 3 Zrotation Xrotation Yrotation
                JOINT lThumb2
                {
                  OFFSET 3.37035 -0.52449 3.41376
                  CHANNELS 3 Zrotation Xrotation Yrotation
                  End Site
                  {
                    OFFSET 1.78271 -1.18214 1.43049
                  }
                }
              }
              JOINT lIndex1
              {
                OFFSET 7.75947 0.938293 5.60832
                CHANNELS 3 Zrotation Xrotation Yrotation
                JOINT lIndex2
                {
                  OFFSET 2.54057 -0.884171 1.56538
                  CHANNELS 3 Zrotation Xrotation Yrotation
                  End Site
                  {
                    OFFSET 1.62519 -0.234802 1.16502
                  }
                }
              }
              JOINT lMid1
              {
                OFFSET 8.24714 1.18213 3.41376
                CHANNELS 3 Zrotation Xrotation Yrotation
                JOINT lMid2
                {
                  OFFSET 3.10165 -0.590103 1.0647
                  CHANNELS 3 Zrotation Xrotation Yrotation
                  End Site
                  {
                    OFFSET 2.48547 -0.328903 0.83742
                  }
                }
              }
              JOINT lRing1
              {
                OFFSET 8.82822 0.546677 1.51678
                CHANNELS 3 Zrotation Xrotation Yrotation
                JOINT lRing2
                {
                  OFFSET 2.60934 -0.819778 -0.0198488
                  CHANNELS 3 Zrotation Xrotation Yrotation
                  End Site
                  {
                    OFFSET 2.33842 -0.294052 0.168128
                  }
                }
              }
              JOINT lPinky1
              {
                OFFSET 8.27202 -0.0477905 -0.4584
                CHANNELS 3 Zrotation Xrotation Yrotation
                JOINT lPinky2
                {
                  OFFSET 1.82734 -0.647385 -0.700984
                  CHANNELS 3 Zrotation Xrotation Yrotation
                  End Site
                  {
                    OFFSET 1.69225 -0.51767 -0.607171
                  }
                }
              }
            }
          }
        }
      }
    }
  }
  JOINT rButtock
  {
    OFFSET -8.77824 4.35084 1.2192
    CHANNELS 3 Zrotation Xrotation Yrotation
    JOINT rThigh
    {
      OFFSET 0 -1.70687 -2.19456
      CHANNELS 3 Zrotation Xrotation Yrotation
      JOINT rShin
      {
        OFFSET 0 -36.8199 0.73152
        CHANNELS 3 Zrotation Xrotation Yrotation
        JOINT rFoot
        {
          OFFSET 0.73152 -45.1104 -5.12064
          CHANNELS 3 Zrotation Xrotation Yrotation
          End Site
          {
            OFFSET -1.1221 -3.69964 12.103
          }
        }
      }
    }
  }
  JOINT lButtock
  {
    OFFSET 8.77824 4.35084 1.2192
    CHANNELS 3 Zrotation Xrotation Yrotation
    JOINT lThigh
    {
      OFFSET 0 -1.70687 -2.19456
      CHANNELS 3 Zrotation Xrotation Yrotation
      JOINT lShin
      {
        OFFSET 0 -36.8199 0.73152
        CHANNELS 3 Zrotation Xrotation Yrotation
        JOINT lFoot
        {
          OFFSET -0.73152 -45.1104 -5.12064
          CHANNELS 3 Zrotation Xrotation Yrotation
          End Site
          {
            OFFSET 1.1221 -3.69964 12.103
          }
        }
      }
    }
  }
}
MOTION
Frames:	7
Frame Time:	0.00833333
0.0 0.0 0.0 0.0 0.0 0.0 0.0 0.0 0.0 0.0 0.0 0.0 0.0 0.0 0.0 0.0 0.0 0.0 0.0 0.0 0.0 0.0 0.0 0.0 0.0 0.0 0.0 0.0 0.0 0.0 0.0 0.0 0.0 0.0 0.0 0.0 0.0 0.0 0.0 0.0 0.0 0.0 0.0 0.0 0.0 0.0 0.0 0.0 0.0 0.0 0.0 0.0 0.0 0.0 0.0 0.0 0.0 0.0 0.0 0.0 0.0 0.0 0.0 0.0 0.0 0.0 0.0 0.0 0.0 0.0 0.0 0.0 0.0 0.0 0.0 0.0 0.0 0.0 0.0 0.0 0.0 0.0 0.0 0.0 0.0 0.0 0.0 0.0 0.0 0.0 0.0 0.0 0.0 0.0 0.0 0.0 0.0 0.0 0.0 0.0 0.0 0.0 0.0 0.0 0.0 0.0 0.0 0.0 0.0 0.0 0.0 0.0 0.0 0.0 0.0 0.0 0.0 0.0 0.0 0.0 0.0 0.0 0.0 0.0 0.0 0.0 0.0 0.0 0.0 0.0 0.0 0.0
146.2021 83.1883 -3.1475999999999997 69.057863 -87.70305 -61.52508 -0.678701 -4.617952 146.954482 -0.015161 -3.417148 -143.9284 -2.407028 3.757923 -1.785833 1.825837 3.072884 -0.637984 -0.000877 0.0 -0.000104 0.004712 0.0 0.001132 4.208912 -43.443103 -8.384023 167.738201 75.687319 -153.620244 125.55814 -87.503252 134.822934 -4.326476 -20.512034 -1.753753 -178.518982 -16.064371 89.476085 -171.164683 -7.757603 93.803117 -140.684811 1.506286 116.183784 45.098296 -55.092145 1.618145 -0.571153 1.64842 0.321303 -154.072351 20.052705 138.72321 -0.0009 -0.018513 -0.005787 -154.171689 -65.020118 -178.247551 -135.455506 -12.621531 -132.839482 -23.69365 -39.244425 -25.536485 -3.268535 -26.755867 5.241485 156.94078 2.448854 170.632687 -6.300298 -23.170404 65.413098 -159.650321 -37.034748 -138.705564 68.482741 37.953223 -35.659731 -73.782235 -49.638652 -24.438495 151.35387 -17.158642 -121.132097 62.154433 57.358476 -46.047802 36.037807 51.722074 -29.834094 -7.712258 -13.143197 1.176806 -0.005569 1.770294 -0.557185 154.323347 -65.014852 178.249742 149.992603 28.822597 145.907823 162.634789 55.801713 146.758181 -179.999596 75.749639 -0.000277 -175.797832 66.112898 -180.0 3.527056 -21.856938 99.078434 173.938171 -67.245281 -69.967222 -179.999596 75.749639 -0.000277 -178.455279 63.857915 178.279354 -1.092378 -24.154203 -26.72542 -34.296229 -3.204677 -156.533786
146.6271 83.21730000000001 -3.5153 72.477039 -88.568107 -65.727252 0.018875 -5.260383 179.424424 -1.019986 -1.685861 -173.151747 5.765827 11.021772 60.992827 -0.392155 6.805473 -67.890772 0.002812 -0.0 -0.001457 0.002812 -0.0 -0.001457 -155.417104 -2.951359 161.718809 -35.752002 5.681915 23.252575 -72.640602 -72.60309 -132.52063 -150.745137 24.721433 139.043144 3.0252 -3.006574 -0.386705 -60.115742 30.075401 53.570628 73.418744 -73.572025 26.561159 -2.701422 28.232464 3.205005 -89.835341 60.704034 81.263296 -163.036477 -4.640586 143.141472 -145.118442 0.185286 -179.186974 -30.077771 -73.744155 -51.356383 -145.173765 12.067308 -141.823404 -85.071609 -51.988662 -84.44925 151.981265 14.727644 -157.38157 24.753926 -9.839757 -36.802796 61.406869 -26.273481 138.278647 -76.042083 -67.187508 -63.232345 -4.53124 -4.513944 0.521272 148.330167 -60.291307 -124.074379 -159.640581 -69.972957 -102.397113 -85.87199 -66.735636 -29.83821 8.416688 20.880492 -5.64479 34.321909 55.161838 -29.005285 0.019458 -1.725015 0.543436 156.196294 -46.650587 -177.616656 125.808799 -27.878079 123.552069 -3.935575 2.225859 0.989503 179.998707 75.749717 -0.0 -177.448784 64.843475 140.536231 22.846144 -24.04133 121.53926 149.627366 23.539541 -71.343898 0.004435 0.00099 0.004435 0.965839 -19.953644 180.0 -2.499937 -24.089741 -159.41979 -152.922525 -17.520206 6.483998
146.9851 83.1652 -3.8707 93.180253 -89.511708 -87.2891 -0.414097 -0.665687 -0.022064 1.565627 -4.47179 9.257175 -11.739414 14.158954 -35.600173 5.319694 11.407771 29.858673 -0.000642 0.0 -0.0013 0.00472 0.0 0.000713 0.162622 -0.990137 -0.218056 71.947708 11.188926 -14.82388 4.15132 -56.690691 39.361061 -158.245042 -70.506504 -160.561615 -169.14651 -6.826169 89.915663 7.929018 -56.662941 13.121381 -10.571262 15.013492 6.864941 -179.18044 -33.895702 106.642573 -0.572097 1.648263 0.321318 -149.662789 28.99652 135.653409 -145.120035 0.30965 -179.22664 -156.353313 12.49414 179.291793 -13.276747 -25.410771 -12.631675 -160.185579 58.542684 -149.898566 143.298824 38.837531 -147.737663 -77.100797 -24.25187 -102.772884 73.883967 82.877873 50.276322 -154.120616 -39.595829 -137.227909 3.694976 3.60528 -0.680735 -71.105964 -77.381699 -3.41112 -60.46218 -70.523417 -15.711141 -98.150157 -65.871284 -40.120207 157.052568 3.993648 -141.298659 176.764093 -42.238638 -142.396309 145.112365 -0.667815 178.916823 155.437491 0.832438 179.329563 -26.971117 80.122596 -10.141287 -14.721693 43.019032 -7.364432 179.986492 75.750062 0.011919 -175.596431 65.53256 -3.973249 -1.208878 34.59138 -68.317512 99.73316 27.385609 -15.442365 0.0 -0.000406 0.001198 1.271722 -24.978621 0.560001 -8.114506 35.507335 -71.464468 26.156438 27.400934 75.460632
147.4291 83.0718 -4.2311000000000005 -119.994823 -89.655984 125.973344 -0.14255 -0.704143 -11.44488 2.628424 -4.99175 22.69354 3.889179 17.986108 67.661204 4.476092 5.104961 -80.215629 -0.000174 0.0 -0.001054 -0.000459 0.0 -0.001104 -155.659294 -4.540395 162.0551 108.089563 -18.817491 159.828158 -58.335168 1.229513 -16.399387 -136.927588 35.009087 151.175748 5.594113 -5.581358 -0.591334 -30.780269 25.127443 24.483191 -50.386291 40.826649 40.024448 7.311254 -1.132543 -2.946032 -0.57143 1.64818 0.32331 -4.711081 20.802048 4.252799 -145.113311 -0.626574 -178.931113 -157.00607 27.670172 177.630111 -26.564009 -38.860923 -25.605919 -146.499954 11.31035 -143.286403 44.918412 -86.287858 66.526591 -101.409363 18.305298 112.644059 -1.676544 -33.1668 -103.779031 9.07517 43.947993 -4.238962 -88.928557 -50.831677 -37.599333 160.669113 -27.836883 -126.827312 127.111225 19.504928 -106.948141 171.142582 -26.392832 -117.220165 82.839896 61.110415 -74.532671 171.992339 -31.384739 -143.891733 145.099102 -1.521311 178.650584 71.16971 -78.002913 92.806167 124.850285 -29.038017 122.621208 20.478978 -37.084208 22.679061 -0.001549 0.000101 -0.0 1.931793 -10.971938 -0.0 17.530861 40.326037 89.422576 -152.701697 0.371269 133.973417 0.000681 0.000114 -0.000876 1.6761 -32.640334 180.0 8.034002 -53.25986 35.805787 -23.922341 39.310178 170.352566
147.8481 82.8662 -4.5381 -119.00949 -89.169523 124.941644 -1.536646 -4.91082 153.775424 -3.672888 -0.178767 -142.206695 1.720687 31.961224 149.414373 -3.06259 6.284053 -161.959613 0.004148 0.0 0.001316 -0.001069 0.0 -0.001034 -150.120231 21.701061 155.219411 -52.808038 -28.257549 49.500837 84.863156 21.005069 -73.878531 -13.027169 -66.428071 15.647722 -178.928314 -16.45336 89.421864 14.671853 -64.860344 11.952155 -64.086199 43.040888 52.300871 -89.766769 50.603756 66.208305 173.122862 -66.297716 137.613718 80.817575 -77.741379 52.540503 -145.099983 -1.52178 -178.651531 -152.892232 -21.038164 -176.097516 -24.989 -37.659328 -24.060332 -4.655434 -17.956468 -7.213157 9.65082 34.836394 -11.198467 -98.786434 16.479188 -14.375472 143.438264 14.702432 -24.612908 -96.978078 -64.904277 -85.96432 2.608688 2.554471 -0.457335 133.017348 -32.964064 -115.667062 81.65724 42.619916 -68.125204 -5.300829 1.245432 4.489759 36.034949 51.724189 -29.830088 163.574651 -6.220065 -143.398533 6.3e-05 0.02252 -0.007929 -9.133078 13.65997 -1.804286 148.60727 23.708604 144.776919 146.382463 7.701661 140.734527 0.000776 0.000999 -0.000998 1.953006 -13.469207 172.342044 -6.930026 -40.09623 -148.602885 177.32612 -54.983635 64.521648 0.017821 -0.000119 0.014851 2.503792 -35.378819 -165.649501 -10.849184 -56.206642 22.849024 -153.326627 11.350723 -154.751738
148.2111 82.7709 -4.806 -103.709672 -89.164243 109.370767 -0.21172 -4.69361 177.414348 -2.584039 1.297585 -165.965419 5.467571 24.724071 101.125169 -0.039498 3.877326 -115.447191 0.002542 -0.0 -0.001001 -0.002721 0.0 -0.003255 -153.049761 10.02357 158.668504 36.654074 -59.645643 107.587823 21.385643 36.222004 -93.581563 -26.035883 6.742482 39.592366 -169.318692 -7.001037 89.923277 178.451221 -17.75797 93.464211 -1.16052 1.861296 0.668821 -151.314758 1.324855 109.073278 -161.51805 -9.304262 143.62592 -173.639754 -34.793829 143.387668 -145.062936 -3.306866 -178.085632 -150.373239 -33.828448 -173.363637 1.482744 4.003383 1.361844 -24.316022 -41.340477 -24.922704 9.652056 34.836026 -11.199889 117.764694 -76.013047 -133.554856 15.282181 78.278816 -120.452117 9.814465 47.602524 -5.062487 -1.842528 -1.827054 0.255066 -4.612842 -6.967551 5.050549 -0.184397 -0.300524 0.103898 166.951507 -21.290631 -109.551773 8.417051 20.880299 -5.645577 -15.463342 -36.018423 0.963375 0.000869 -0.018353 0.006832 -11.575027 -36.414716 4.387106 -39.989823 85.64097 0.899826 -2.283141 2.447427 0.312637 -0.000374 6.7e-05 0.000481 2.381371 -11.014096 0.50168 19.391382 45.138002 119.638639 -173.936038 15.789117 163.867352 0.0 -0.001032 0.000763 2.74891 -34.040533 1.584868 10.999979 51.213032 77.108799 -6.561683 -64.323165 -81.194458
